# xmcd
#
# Track frame offsets: 
#        150
#        15982
#        35455
#        55212
#        73062
#        93482
#        112580
#        131525
#        151115
#        171167
#
# Disc length: 2544 seconds
#
# Revision: 1
# Processed by: cddbd v1.5.2PL0 Copyright (c) Steve Scherf et al.
# Submitted via: ExactAudioCopyFreeDBPlugin 1.0
#
DISCID=7209ee0a
DTITLE=刘沁 - 青睐
DYEAR=2000
DGENRE=Pop
TTITLE0=影子
TTITLE1=距离
TTITLE2=亮点
TTITLE3=碎片
TTITLE4=适应
TTITLE5=探望
TTITLE6=爱很透明
TTITLE7=坠入
TTITLE8=自然
TTITLE9=不要你离去
EXTD=
EXTT0=
EXTT1=
EXTT2=
EXTT3=
EXTT4=
EXTT5=
EXTT6=
EXTT7=
EXTT8=
EXTT9=
PLAYORDER=
